<svg width="40" height="38" viewBox="0 0 40 38" fill="none" xmlns="http://www.w3.org/2000/svg">
<path d="M6 14L4.1 9.9L0 8L4.1 6.1L6 2L7.9 6.1L12 8L7.9 9.9L6 14ZM32 8L30.75 5.25L28 4L30.75 2.75L32 0L33.25 2.75L36 4L33.25 5.25L32 8ZM36 16L34.75 13.25L32 12L34.75 10.75L36 8L37.25 10.75L40 12L37.25 13.25L36 16ZM20 24C18.3333 24 16.9167 23.4167 15.75 22.25C14.5833 21.0833 14 19.6667 14 18V6C14 4.33333 14.5833 2.91667 15.75 1.75C16.9167 0.583333 18.3333 0 20 0C21.6667 0 23.0833 0.583333 24.25 1.75C25.4167 2.91667 26 4.33333 26 6V18C26 19.6667 25.4167 21.0833 24.25 22.25C23.0833 23.4167 21.6667 24 20 24ZM18 38V31.85C14.5333 31.3833 11.6667 29.8333 9.4 27.2C7.13333 24.5667 6 21.5 6 18H10C10 20.7667 10.9753 23.1247 12.926 25.074C14.8753 27.0247 17.2333 28 20 28C22.7667 28 25.1253 27.0247 27.076 25.074C29.0253 23.1247 30 20.7667 30 18H34C34 21.5 32.8667 24.5667 30.6 27.2C28.3333 29.8333 25.4667 31.3833 22 31.85V38H18ZM20 20C20.5667 20 21.042 19.808 21.426 19.424C21.8087 19.0413 22 18.5667 22 18V6C22 5.43333 21.8087 4.958 21.426 4.574C21.042 4.19133 20.5667 4 20 4C19.4333 4 18.9587 4.19133 18.576 4.574C18.192 4.958 18 5.43333 18 6V18C18 18.5667 18.192 19.0413 18.576 19.424C18.9587 19.808 19.4333 20 20 20Z" fill="#240506"/>
</svg>
