<svg width="1440" height="768" viewBox="0 0 1440 768" fill="none" xmlns="http://www.w3.org/2000/svg">
<g clip-path="url(#clip0_401_65)">
<rect width="1440" height="768" fill="#9B4EF7"/>
<path d="M1122.97 892.963V1006.14C1122.97 1021.07 1142.56 1026.65 1150.42 1013.95L1193.96 943.618C1202.68 929.493 1217.22 919.967 1233.63 917.534L1523 892.963L1511 29.6754C1511 13.2946 1497.71 0 1481.32 0H81C49.5 0 60.5 18 75.931 20.8618L1096.11 214.375C1113 219.5 1123 238.412 1123 256.484V892.963H1122.97Z" fill="#240506"/>
<path d="M964.991 109.736C945.175 114.577 941.212 118.541 936.371 138.358C931.53 118.541 927.567 114.577 907.751 109.736C927.567 104.896 931.53 100.932 936.371 81.1147C941.212 100.932 945.175 104.896 964.991 109.736Z" fill="#F9EAE1"/>
<path d="M747.616 100.387C737.693 102.808 735.727 104.775 733.306 114.698C730.886 104.775 728.919 102.808 718.996 100.387C728.919 97.9671 730.886 96.0005 733.306 86.0767C735.727 96.0005 737.693 97.9671 747.616 100.387V100.387Z" fill="#F9EAE1"/>
<path d="M1191.62 594.311C1181.7 596.731 1179.73 598.698 1177.31 608.622C1174.89 598.698 1172.92 596.731 1163 594.311C1172.92 591.89 1174.89 589.924 1177.31 580C1179.73 589.924 1181.7 591.89 1191.62 594.311Z" fill="#F9EAE1"/>
<path d="M1091.51 104.109C1096.33 104.109 1100.23 100.208 1100.23 95.3953C1100.23 90.583 1096.33 86.6818 1091.51 86.6818C1086.7 86.6818 1082.8 90.583 1082.8 95.3953C1082.8 100.208 1086.7 104.109 1091.51 104.109Z" fill="#F9EAE1"/>
<path d="M1359.8 536.609C1364.67 536.609 1368.61 532.667 1368.61 527.804C1368.61 522.942 1364.67 519 1359.8 519C1354.94 519 1351 522.942 1351 527.804C1351 532.667 1354.94 536.609 1359.8 536.609Z" fill="#F9EAE1"/>
<path d="M1248.8 265.609C1253.66 265.609 1257.6 261.667 1257.6 256.804C1257.6 251.942 1253.66 248 1248.8 248C1243.93 248 1239.99 251.942 1239.99 256.804C1239.99 261.667 1243.93 265.609 1248.8 265.609Z" fill="#F9EAE1"/>
<path d="M1359.8 89.6087C1364.67 89.6087 1368.61 85.6669 1368.61 80.8044C1368.61 75.9418 1364.67 72 1359.8 72C1354.94 72 1351 75.9418 1351 80.8044C1351 85.6669 1354.94 89.6087 1359.8 89.6087Z" fill="#F9EAE1"/>
</g>
<defs>
<clipPath id="clip0_401_65">
<rect width="1440" height="768" fill="white"/>
</clipPath>
</defs>
</svg>
