<svg width="36" height="36" viewBox="0 0 36 36" fill="none" xmlns="http://www.w3.org/2000/svg">
<path d="M23 17.5C22.3 17.5 21.7087 17.258 21.226 16.774C20.742 16.2913 20.5 15.7 20.5 15C20.5 14.3 20.742 13.7087 21.226 13.226C21.7087 12.742 22.3 12.5 23 12.5C23.7 12.5 24.2913 12.742 24.774 13.226C25.258 13.7087 25.5 14.3 25.5 15C25.5 15.7 25.258 16.2913 24.774 16.774C24.2913 17.258 23.7 17.5 23 17.5ZM13 17.5C12.3 17.5 11.7087 17.258 11.226 16.774C10.742 16.2913 10.5 15.7 10.5 15C10.5 14.3 10.742 13.7087 11.226 13.226C11.7087 12.742 12.3 12.5 13 12.5C13.7 12.5 14.2913 12.742 14.774 13.226C15.258 13.7087 15.5 14.3 15.5 15C15.5 15.7 15.258 16.2913 14.774 16.774C14.2913 17.258 13.7 17.5 13 17.5ZM18 28C16 28 14.192 27.45 12.576 26.35C10.9587 25.25 9.76667 23.8 9 22H27C26.2333 23.8 25.042 25.25 23.426 26.35C21.8087 27.45 20 28 18 28ZM18 36C15.5 36 13.1587 35.5253 10.976 34.576C8.792 33.6253 6.892 32.3413 5.276 30.724C3.65867 29.108 2.37467 27.208 1.424 25.024C0.474666 22.8413 0 20.5 0 18C0 15.5 0.474666 13.158 1.424 10.974C2.37467 8.79133 3.65867 6.89133 5.276 5.274C6.892 3.658 8.792 2.37467 10.976 1.424C13.1587 0.474666 15.5 0 18 0C20.5 0 22.842 0.474666 25.026 1.424C27.2087 2.37467 29.1087 3.658 30.726 5.274C32.342 6.89133 33.6253 8.79133 34.576 10.974C35.5253 13.158 36 15.5 36 18C36 20.5 35.5253 22.8413 34.576 25.024C33.6253 27.208 32.342 29.108 30.726 30.724C29.1087 32.3413 27.2087 33.6253 25.026 34.576C22.842 35.5253 20.5 36 18 36ZM18 32C21.8667 32 25.1667 30.6333 27.9 27.9C30.6333 25.1667 32 21.8667 32 18C32 14.1333 30.6333 10.8333 27.9 8.1C25.1667 5.36667 21.8667 4 18 4H17.4C17.2 4 17 4.03333 16.8 4.1C16.6 4.3 16.4667 4.51667 16.4 4.75C16.3333 4.98333 16.3 5.23333 16.3 5.5C16.3 6.2 16.5413 6.79133 17.024 7.274C17.508 7.758 18.1 8 18.8 8C19.1 8 19.3747 7.95 19.624 7.85C19.8747 7.75 20.1333 7.7 20.4 7.7C20.8 7.7 21.1333 7.85 21.4 8.15C21.6667 8.45 21.8 8.8 21.8 9.2C21.8 9.96667 21.442 10.458 20.726 10.674C20.0087 10.8913 19.3667 11 18.8 11C17.3 11 16.0087 10.4587 14.926 9.376C13.842 8.292 13.3 7 13.3 5.5V5.2C13.3 5.1 13.3167 4.96667 13.35 4.8C10.5833 5.8 8.33333 7.48333 6.6 9.85C4.86667 12.2167 4 14.9333 4 18C4 21.8667 5.36667 25.1667 8.1 27.9C10.8333 30.6333 14.1333 32 18 32Z" fill="#240506"/>
</svg>
