<svg width="44" height="32" viewBox="0 0 44 32" fill="none" xmlns="http://www.w3.org/2000/svg">
<path d="M0 32V24C0 22.8667 0.392 21.9167 1.176 21.15C1.95867 20.3833 2.9 20 4 20H10.55C11.2167 20 11.85 20.1667 12.45 20.5C13.05 20.8333 13.5333 21.2833 13.9 21.85C14.8667 23.15 16.0587 24.1667 17.476 24.9C18.892 25.6333 20.4 26 22 26C23.6333 26 25.1587 25.6333 26.576 24.9C27.992 24.1667 29.1667 23.15 30.1 21.85C30.5333 21.2833 31.0413 20.8333 31.624 20.5C32.208 20.1667 32.8167 20 33.45 20H40C41.1333 20 42.0833 20.3833 42.85 21.15C43.6167 21.9167 44 22.8667 44 24V32H30V27.45C28.8333 28.2833 27.5753 28.9167 26.226 29.35C24.8753 29.7833 23.4667 30 22 30C20.5667 30 19.1667 29.7753 17.8 29.326C16.4333 28.8753 15.1667 28.2333 14 27.4V32H0ZM22 24C20.7333 24 19.5333 23.708 18.4 23.124C17.2667 22.5413 16.3167 21.7333 15.55 20.7C14.9833 19.8667 14.2753 19.2087 13.426 18.726C12.5753 18.242 11.65 18 10.65 18C11.3833 16.7667 12.9333 15.7913 15.3 15.074C17.6667 14.358 19.9 14 22 14C24.1 14 26.3333 14.358 28.7 15.074C31.0667 15.7913 32.6167 16.7667 33.35 18C32.3833 18 31.4667 18.242 30.6 18.726C29.7333 19.2087 29.0167 19.8667 28.45 20.7C27.7167 21.7667 26.7833 22.5833 25.65 23.15C24.5167 23.7167 23.3 24 22 24ZM6 18C4.33333 18 2.91667 17.4167 1.75 16.25C0.583333 15.0833 0 13.6667 0 12C0 10.3 0.583333 8.87467 1.75 7.724C2.91667 6.57467 4.33333 6 6 6C7.7 6 9.12533 6.57467 10.276 7.724C11.4253 8.87467 12 10.3 12 12C12 13.6667 11.4253 15.0833 10.276 16.25C9.12533 17.4167 7.7 18 6 18ZM38 18C36.3333 18 34.9167 17.4167 33.75 16.25C32.5833 15.0833 32 13.6667 32 12C32 10.3 32.5833 8.87467 33.75 7.724C34.9167 6.57467 36.3333 6 38 6C39.7 6 41.1253 6.57467 42.276 7.724C43.4253 8.87467 44 10.3 44 12C44 13.6667 43.4253 15.0833 42.276 16.25C41.1253 17.4167 39.7 18 38 18ZM22 12C20.3333 12 18.9167 11.4167 17.75 10.25C16.5833 9.08333 16 7.66667 16 6C16 4.3 16.5833 2.87467 17.75 1.724C18.9167 0.574667 20.3333 0 22 0C23.7 0 25.1247 0.574667 26.274 1.724C27.4247 2.87467 28 4.3 28 6C28 7.66667 27.4247 9.08333 26.274 10.25C25.1247 11.4167 23.7 12 22 12Z" fill="#240506"/>
</svg>
