<svg width="123" height="62" viewBox="0 0 123 62" fill="none" xmlns="http://www.w3.org/2000/svg">
<g clip-path="url(#clip0_1_2)">
<path d="M27.6755 54.2227V61.0954C27.6755 62.0018 28.861 62.3406 29.337 61.5693L31.972 57.2987C32.5 56.441 33.3802 55.8625 34.3735 55.7148L44.4105 54.2227V1.80196C44.4105 0.807278 43.6058 0 42.6143 0H2.29923C-1.17277 0 0.149214 0.971256 0.783262 1.26678L26.05 13.0174C27.0433 13.4787 27.6773 14.4769 27.6773 15.5743V54.2227H27.6755Z" fill="#240506"/>
<path d="M34.4344 6.53571C33.2579 6.82402 33.0226 7.06008 32.7352 8.24036C32.4478 7.06008 32.2125 6.82402 31.036 6.53571C32.2125 6.24739 32.4478 6.01134 32.7352 4.83105C33.0226 6.01134 33.2579 6.24739 34.4344 6.53571Z" fill="#F9EAE1"/>
<path d="M21.5289 5.97891C20.9397 6.12306 20.823 6.24019 20.6793 6.83123C20.5356 6.24019 20.4189 6.12306 19.8297 5.97891C20.4189 5.83475 20.5356 5.71762 20.6793 5.12658C20.823 5.71762 20.9397 5.83475 21.5289 5.97891Z" fill="#F9EAE1"/>
<path d="M41.1269 26.5555C40.5378 26.6996 40.421 26.8168 40.2773 27.4078C40.1336 26.8168 40.0169 26.6996 39.4277 26.5555C40.0169 26.4113 40.1336 26.2942 40.2773 25.7031C40.421 26.2942 40.5378 26.4113 41.1269 26.5555Z" fill="#F9EAE1"/>
<path d="M41.946 6.20054C42.2317 6.20054 42.4633 5.96819 42.4633 5.68158C42.4633 5.39496 42.2317 5.16261 41.946 5.16261C41.6603 5.16261 41.4287 5.39496 41.4287 5.68158C41.4287 5.96819 41.6603 6.20054 41.946 6.20054Z" fill="#F9EAE1"/>
<path d="M31.3235 35.8103C31.6121 35.8103 31.8462 35.5756 31.8462 35.286C31.8462 34.9964 31.6121 34.7616 31.3235 34.7616C31.0348 34.7616 30.8008 34.9964 30.8008 35.286C30.8008 35.5756 31.0348 35.8103 31.3235 35.8103Z" fill="#F9EAE1"/>
<path d="M35.1295 18.9458C35.4182 18.9458 35.6522 18.711 35.6522 18.4214C35.6522 18.1318 35.4182 17.8971 35.1295 17.8971C34.8408 17.8971 34.6068 18.1318 34.6068 18.4214C34.6068 18.711 34.8408 18.9458 35.1295 18.9458Z" fill="#F9EAE1"/>
<path d="M39.1529 47.1843C39.4673 47.1843 39.7223 46.9286 39.7223 46.6131C39.7223 46.2976 39.4673 46.0419 39.1529 46.0419C38.8384 46.0419 38.5835 46.2976 38.5835 46.6131C38.5835 46.9286 38.8384 47.1843 39.1529 47.1843Z" fill="#F9EAE1"/>
<path d="M73.3698 53.9561C70.645 53.9506 68.6459 53.2082 66.6916 51.4802C64.8973 50.2747 63.7082 48.3195 63.349 46.168L60.8846 52.3505C60.5433 53.183 59.8949 53.6209 59.0112 53.6209H55.7458C55.1961 53.6209 54.7399 53.4551 54.3915 53.1308C53.9316 52.7596 53.47 52.3865 53.0102 52.0135C52.7533 51.8009 52.5522 51.518 52.4085 51.1702L47.6558 39.2521C47.363 38.5007 47.5265 38.0141 47.7151 37.7384C47.9037 37.4627 48.2934 37.133 49.0838 37.133H51.3469C51.8822 37.133 52.3151 37.3023 52.7228 37.6663C53.1341 37.9979 53.5455 38.3313 53.9568 38.6646C54.2711 38.8935 54.5082 39.2232 54.6573 39.6467L56.4391 44.7625L58.6322 38.4628C58.934 37.6051 59.5896 37.133 60.4769 37.133H62.7401C63.2304 37.133 63.622 37.2591 63.9058 37.5096C64.3369 37.8574 64.7679 38.2051 65.1954 38.5529C65.3355 38.6412 65.49 38.7745 65.6049 38.9692C67.0329 37.6105 69.1596 36.7654 71.3491 36.7654C73.1076 36.7654 74.7133 37.324 75.8737 38.3385L77.2603 39.4611C79.0259 40.8828 80.0102 43.3011 79.9582 46.0923C79.9582 47.1176 79.2648 47.8132 78.232 47.8132H77.1687C77.3771 47.9808 77.5836 48.1483 77.7902 48.3177L77.9249 48.4258L78.0201 48.4997C78.3973 48.7898 78.8248 49.1178 78.8086 49.999V51.181C78.8086 52.0946 78.4566 52.7163 77.7309 53.0785C76.6083 53.6587 75.139 53.9543 73.3716 53.9543L73.3698 53.9561ZM70.8336 47.8132C71.288 47.9249 71.7838 47.9808 72.3154 47.9808C72.8471 47.9808 73.3914 47.9231 73.9356 47.8132H70.8354H70.8336Z" fill="#240506"/>
<path d="M71.351 37.306C72.8921 37.306 74.3973 37.76 75.5289 38.7529C75.9941 39.1295 76.4593 39.5061 76.9245 39.8828C78.5949 41.227 79.4697 43.5299 79.4212 46.0833C79.4212 46.8275 78.9757 47.2744 78.2339 47.2744H69.4758C69.562 47.5537 69.6913 47.815 69.8566 48.0546C70.6038 48.3808 71.4533 48.5231 72.3173 48.5231C73.3878 48.5231 74.4799 48.3051 75.4337 47.9501C75.6546 47.869 75.8576 47.8276 76.0354 47.8276C76.2365 47.8276 76.4054 47.8817 76.5329 47.9952C76.8868 48.2763 77.237 48.5628 77.5891 48.8475C77.986 49.1592 78.286 49.3214 78.2734 49.9917V51.1828C78.2734 51.8153 78.0884 52.3001 77.4939 52.5974C76.2689 53.2299 74.7475 53.4173 73.3752 53.4173C70.5139 53.4101 68.7232 52.5631 67.0258 51.0513C64.5453 49.4043 63.3329 46.3085 63.9184 43.2939L60.3871 52.1505C60.1267 52.783 59.6812 53.0803 59.0149 53.0803H55.7494C55.3327 53.0803 55.0004 52.9632 54.749 52.7217C54.2837 52.3469 53.8185 51.9703 53.3533 51.5919C53.1701 51.4405 53.0228 51.2351 52.9115 50.963L48.1624 39.0503C47.8283 38.1943 48.2001 37.6736 49.091 37.6736H51.3542C51.3596 37.6736 51.3632 37.6736 51.3686 37.6736C51.8014 37.6736 52.1014 37.8267 52.3816 38.079C52.8001 38.416 53.2204 38.7565 53.6371 39.0953C53.867 39.2575 54.0413 39.5025 54.1544 39.8269L56.4445 46.4022L59.146 38.6412C59.3687 38.0087 59.8142 37.6736 60.4823 37.6736H62.7455C63.1101 37.6736 63.3849 37.7618 63.5628 37.924C64.0064 38.2808 64.4483 38.6376 64.8883 38.9962C65.4344 39.3205 65.2781 39.9945 64.9925 40.6035C66.1888 38.5349 68.8184 37.306 71.3563 37.306M69.9913 43.1839H73.5818C73.5028 42.838 73.3914 42.519 73.2423 42.2361C72.9855 42.164 72.7107 42.1316 72.4305 42.1316C71.4677 42.1316 70.4565 42.5334 69.9913 43.1839ZM71.3563 36.2248C69.2333 36.2248 67.1623 36.978 65.6553 38.2141C65.6086 38.1763 65.5637 38.1439 65.5206 38.115C65.1003 37.7727 64.68 37.4339 64.2579 37.0933C63.9867 36.8573 63.5107 36.5906 62.7473 36.5906H60.4841C59.3669 36.5906 58.5101 37.2068 58.1311 38.279L56.4445 43.1209L55.1729 39.4683C54.9878 38.9403 54.6915 38.5259 54.2927 38.234C53.8886 37.906 53.4844 37.578 53.0785 37.2519C52.5756 36.8068 52.017 36.5906 51.3686 36.5906H51.3452V36.5924C51.3165 36.5924 51.2877 36.5906 51.2572 36.5906H51.0003H50.2226H49.091C48.0097 36.5906 47.4906 37.1167 47.2769 37.4321C47.0631 37.7474 46.7632 38.4268 47.1601 39.4449L51.9128 51.3648V51.3702L51.9164 51.3756C52.0924 51.8063 52.3457 52.1595 52.669 52.4262L52.6726 52.4298L52.6762 52.4334C53.1324 52.8028 53.5868 53.1722 54.0449 53.5398C54.4957 53.9524 55.0687 54.1615 55.7512 54.1615H59.0167C60.1213 54.1615 60.9619 53.5939 61.3858 52.5613V52.5559L61.3894 52.5505L63.2484 47.8889C63.2736 47.9537 63.2969 48.0204 63.3239 48.0853C63.9525 49.662 65.0033 50.9828 66.3684 51.909C68.4196 53.7164 70.5193 54.4912 73.3752 54.4966C75.2307 54.4966 76.7808 54.1813 77.986 53.5596C78.8949 53.1019 79.3547 52.3019 79.3547 51.181V49.999C79.3673 49.1196 79.0116 48.6385 78.6614 48.3213C79.7624 48.1465 80.5007 47.278 80.5043 46.0923C80.5581 43.1371 79.5002 40.5657 77.6034 39.0376C77.1454 38.6664 76.6856 38.2952 76.2258 37.9222C74.9685 36.8266 73.2405 36.223 71.3563 36.223V36.2248Z" fill="#240506"/>
<path d="M112.144 54.0065C110.272 54.0065 108.524 53.3686 107.084 52.1631C104.959 50.6278 102.795 48.5484 102.798 44.7841C102.75 42.7335 103.519 40.7819 104.961 39.3007C106.516 37.7042 108.686 36.787 110.917 36.787C112.783 36.787 114.527 37.4267 115.957 38.6394L117.344 39.7602C119.174 41.2631 120.221 43.5263 120.221 45.9698C120.27 48.0601 119.503 50.0368 118.057 51.5216C116.519 53.1001 114.366 54.0065 112.144 54.0065ZM110.112 48.0024C110.38 48.0655 110.637 48.0961 110.876 48.0961C111.702 48.0961 112.343 47.7303 112.783 47.0113C113.464 45.8959 113.503 44.1552 112.896 42.7839C112.652 42.7281 112.417 42.701 112.19 42.701C111.538 42.701 110.967 42.9371 110.538 43.3858C109.976 43.9732 109.678 44.9084 109.719 45.95V45.9716C109.719 46.7753 109.854 47.4708 110.112 48.0024Z" fill="#240506"/>
<path d="M110.917 37.3276C112.548 37.3276 114.204 37.861 115.61 39.0521C116.076 39.4287 116.541 39.8053 117.006 40.1819C118.671 41.5496 119.682 43.638 119.682 45.9698C119.788 50.4458 116.04 53.4641 112.144 53.4641C110.5 53.4641 108.832 52.9271 107.414 51.7342C105.031 50.0134 103.333 48.0186 103.337 44.7841C103.235 40.3891 107.008 37.3276 110.917 37.3276ZM110.874 48.6349C113.784 48.6349 114.529 44.7931 113.273 42.3208C112.891 42.2091 112.53 42.1568 112.19 42.1568C110.279 42.1568 109.094 43.8182 109.18 45.968C109.18 46.923 109.354 47.7916 109.748 48.4619C110.154 48.579 110.529 48.6331 110.874 48.6331M110.917 36.2446C108.542 36.2446 106.231 37.2195 104.575 38.9205C103.034 40.5044 102.211 42.5893 102.259 44.7949C102.259 48.8079 104.654 51.0675 106.753 52.5884C108.289 53.8678 110.152 54.5435 112.144 54.5435C114.509 54.5435 116.805 53.5795 118.443 51.8964C119.988 50.3107 120.81 48.2006 120.76 45.9554C120.756 43.3533 119.637 40.9441 117.688 39.3422C117.22 38.9638 116.758 38.589 116.296 38.2159C114.77 36.9257 112.909 36.2446 110.917 36.2446ZM110.495 47.5231C110.34 47.0996 110.258 46.5716 110.258 45.968V45.9247C110.222 45.0274 110.466 44.2381 110.926 43.757C111.255 43.4128 111.68 43.238 112.19 43.238C112.293 43.238 112.399 43.2452 112.507 43.2596C112.927 44.4201 112.866 45.8346 112.322 46.7248C111.982 47.2816 111.508 47.5519 110.872 47.5519C110.752 47.5519 110.624 47.5411 110.491 47.5231H110.495Z" fill="#240506"/>
<path d="M113.52 34.7418C111.734 34.7418 110.03 34.1453 108.839 33.1038L107.889 32.3344C105.229 30.5252 103.882 26.9519 104.587 23.7805C104.573 23.7805 104.559 23.7805 104.543 23.7805C103.614 23.7805 102.924 24.0255 102.432 24.5301C101.265 25.7284 101.324 28.2926 101.374 30.554C101.39 31.2892 101.406 31.9848 101.383 32.6281C101.378 33.6588 100.686 34.3489 99.6569 34.3489H97.6524C97.1567 34.3489 96.7489 34.1976 96.4041 33.8858C95.9676 33.5345 95.5329 33.1831 95.0982 32.8299C94.6869 32.5218 94.4606 32.0262 94.4606 31.4316V28.4457C94.2702 28.5088 94.0583 28.5412 93.8302 28.5412H92.7668C92.9734 28.707 93.1781 28.8746 93.3829 29.0404L93.523 29.1539L93.62 29.2278C93.9972 29.5179 94.4229 29.8458 94.4067 30.727V31.9091C94.4067 32.8227 94.0547 33.4444 93.329 33.8066C92.2064 34.3868 90.7371 34.6823 88.9697 34.6823C86.2449 34.6733 84.2655 33.9489 82.3562 32.2587C80.0535 30.6549 78.8052 28.2493 78.8375 25.4797C78.7693 23.4525 79.5236 21.5118 80.9642 20.0144C82.5268 18.3908 84.6876 17.4592 86.8951 17.4592C88.6374 17.4592 90.2612 18.0484 91.5939 19.1656C92.8818 20.0846 93.8212 21.0451 94.4606 22.1335V19.5927C94.4606 18.5566 95.1539 17.861 96.1867 17.861C96.4256 17.861 96.6322 17.8574 96.8136 17.8556C96.9699 17.8538 97.1082 17.852 97.2303 17.852C98.2739 17.852 98.5361 18.0376 99.4504 18.7998C100.354 17.9133 101.563 17.4304 102.908 17.4304C103.271 17.4304 103.639 17.4664 104.005 17.5349L104.029 17.5403C104.507 17.6556 104.823 17.9295 105.101 18.1728C105.205 18.2629 105.302 18.3494 105.403 18.4214L105.424 18.4376C105.521 18.5151 105.611 18.5836 105.694 18.6485C106.222 19.0593 106.547 19.3422 106.709 19.8035C108.099 18.3854 109.99 17.5673 111.98 17.5673C113.522 17.5673 114.98 18.07 116.175 18.9981C116.532 18.07 117.229 17.852 118.14 17.852C118.265 17.852 118.396 17.8556 118.533 17.8574C118.673 17.861 118.822 17.8646 118.975 17.8646C119.063 17.8646 119.154 17.8646 119.246 17.861H119.307C119.972 17.861 120.356 18.1836 120.695 18.4701L120.783 18.544C121.125 18.8179 121.471 19.099 121.816 19.3801C122.228 19.6882 122.454 20.1837 122.454 20.7784V32.6173C122.418 34.358 120.895 34.358 120.394 34.358C120.243 34.358 120.09 34.3525 119.936 34.3489H119.932C119.056 34.3489 118.486 33.8426 117.983 33.3939C117.917 33.3344 117.85 33.275 117.786 33.2191C116.749 34.1922 115.223 34.7418 113.511 34.7418H113.52ZM111.794 28.7106C112.124 28.8097 112.446 28.862 112.753 28.862C114.084 28.862 114.786 27.9502 115.086 27.406C115.727 26.2455 115.713 24.7751 115.064 23.6093C114.754 23.512 114.441 23.4615 114.138 23.4615C113.392 23.4615 112.695 23.7606 112.176 24.3066C111.589 24.9247 111.287 25.7788 111.33 26.7104V26.7357C111.33 27.4925 111.49 28.17 111.795 28.7106H111.794ZM86.4335 28.5412C86.8879 28.653 87.3837 28.7088 87.9154 28.7088C88.447 28.7088 88.9913 28.6511 89.5355 28.5412H86.4335Z" fill="#240506"/>
<path d="M102.912 17.9709C103.246 17.9709 103.58 18.0034 103.907 18.0664C104.41 18.1872 104.697 18.5782 105.094 18.8611C106.128 19.6846 106.375 19.717 106.287 21.1766C107.628 19.1927 109.811 18.1079 111.986 18.1079C113.613 18.1079 115.235 18.7151 116.5 20.0054C116.67 18.553 117.25 18.3926 118.145 18.3926C118.398 18.3926 118.678 18.4052 118.982 18.4052C119.075 18.4052 119.172 18.4052 119.271 18.3998C119.285 18.3998 119.3 18.3998 119.316 18.3998C119.83 18.3998 120.103 18.6737 120.449 18.9602C120.8 19.2413 121.148 19.5242 121.497 19.8071C121.771 20.009 121.926 20.3423 121.926 20.7766V32.6155C121.904 33.675 121.206 33.8156 120.404 33.8156C120.259 33.8156 120.108 33.8102 119.959 33.8066C119.954 33.8066 119.948 33.8066 119.943 33.8066C118.985 33.8066 118.463 32.9795 117.743 32.4929C116.765 33.6444 115.163 34.2012 113.522 34.2012C111.88 34.2012 110.321 33.6858 109.187 32.6893C108.862 32.4263 108.535 32.1632 108.21 31.8983C105.611 30.145 104.264 26.4456 105.281 23.2813C105.02 23.2525 104.776 23.2381 104.544 23.2381C99.8437 23.2381 100.979 29.0278 100.848 32.6155C100.848 33.3597 100.402 33.8066 99.6605 33.8066H97.6559C97.6559 33.8066 97.6541 33.8066 97.6523 33.8066C97.2644 33.8066 96.9914 33.6858 96.7579 33.4732C96.3142 33.1164 95.8723 32.7596 95.4323 32.401C95.1575 32.1992 95.003 31.8658 95.003 31.4316V27.0546C94.9132 27.6511 94.4911 28.0006 93.8337 28.0006H85.0756C85.1618 28.2799 85.2911 28.5412 85.4563 28.7809C86.2053 29.107 87.0531 29.2494 87.9189 29.2494C88.9876 29.2494 90.0797 29.0314 91.0335 28.6764C91.2544 28.5953 91.4574 28.5538 91.6334 28.5538C91.8346 28.5538 92.0034 28.6079 92.1309 28.7214C92.4848 29.0025 92.835 29.289 93.1871 29.5738C93.584 29.8855 93.884 30.0477 93.8714 30.718V31.9091C93.8714 32.5416 93.6864 33.0263 93.0919 33.3236C91.8669 33.9561 90.3455 34.1435 88.9733 34.1435C86.1551 34.1345 84.3589 33.3164 82.6938 31.8352C80.5977 30.3864 79.3458 28.1736 79.3817 25.4761C79.2272 21.1622 83.0297 18.0016 86.9005 18.0016C88.4254 18.0016 89.9611 18.4917 91.2688 19.5945C93.4798 21.1676 94.8503 22.9516 95.003 26.0311V19.5945C95.003 18.8503 95.4485 18.4034 96.1903 18.4034C96.6357 18.4034 96.9698 18.3944 97.2338 18.3944C98.2038 18.3944 98.2559 18.5115 99.506 19.5477C100.402 18.4431 101.654 17.9727 102.913 17.9727M85.5857 23.9138H89.1762C89.0972 23.5678 88.9858 23.2489 88.8367 22.966C88.5799 22.8939 88.3051 22.8615 88.0249 22.8615C87.0621 22.8615 86.0509 23.2633 85.5857 23.9138ZM112.755 29.4044C115.627 29.4044 117.019 25.7122 115.429 23.1642C114.987 23.0002 114.553 22.9227 114.139 22.9227C112.203 22.9227 110.696 24.5949 110.793 26.7375C110.793 27.6601 111.01 28.5034 111.44 29.1647C111.905 29.3287 112.345 29.4044 112.756 29.4044M102.915 16.8916C101.597 16.8916 100.397 17.3114 99.4413 18.0899C98.7247 17.5168 98.3026 17.3114 97.2356 17.3114C97.1099 17.3114 96.9698 17.3132 96.8117 17.315C96.6321 17.3168 96.4274 17.3204 96.1903 17.3204C95.5365 17.3204 94.9707 17.5385 94.5593 17.9529C94.1462 18.3674 93.9289 18.9332 93.9289 19.5927V20.4883C93.3793 19.8774 92.7165 19.299 91.9297 18.7368C90.5018 17.5475 88.7649 16.9186 86.9023 16.9186C84.5511 16.9186 82.2466 17.9097 80.5833 19.6396C79.044 21.2415 78.2339 23.3156 78.304 25.4869C78.2717 28.4259 79.5936 30.9811 82.0275 32.6875C84.0356 34.4571 86.1155 35.2157 88.9697 35.2247C90.8251 35.2247 92.3752 34.9094 93.5804 34.2877C94.0923 34.0282 94.4623 33.6624 94.6887 33.1885C94.7156 33.2119 94.7426 33.2335 94.7713 33.2552C95.2006 33.6029 95.6299 33.9507 96.0609 34.2985C96.501 34.6913 97.0363 34.8895 97.6541 34.8895C97.6829 34.8895 97.7134 34.8895 97.744 34.8895H97.9703H98.6582H99.6605C100.986 34.8895 101.915 33.9651 101.925 32.6389C101.949 31.9812 101.933 31.282 101.916 30.5414C101.866 28.3863 101.81 25.9446 102.82 24.9085C103.097 24.6256 103.465 24.4454 103.939 24.3679C103.519 27.5538 104.938 30.9703 107.569 32.7704C107.878 33.0209 108.187 33.2696 108.496 33.52C109.784 34.6409 111.614 35.2842 113.523 35.2842C115.178 35.2842 116.679 34.8012 117.791 33.9363C118.294 34.376 118.966 34.8913 119.945 34.8913C120.096 34.8967 120.248 34.9003 120.404 34.9003C120.879 34.9003 121.489 34.8589 122.014 34.5418C122.452 34.2769 122.982 33.7309 123.004 32.6407V32.6299V32.6191V20.7802C123.004 20.0144 122.704 19.3693 122.159 18.9566C121.818 18.6791 121.477 18.4016 121.134 18.1259L121.053 18.0574C120.704 17.7637 120.178 17.3204 119.318 17.3204C119.293 17.3204 119.267 17.3204 119.242 17.3204C119.153 17.324 119.068 17.324 118.985 17.324C118.836 17.324 118.693 17.3204 118.556 17.3168C118.414 17.3132 118.28 17.3096 118.15 17.3096C117.399 17.3096 116.559 17.4394 116.004 18.2052C114.82 17.4376 113.439 17.0249 111.991 17.0249C110.087 17.0249 108.27 17.7205 106.842 18.9476C106.637 18.7061 106.369 18.4791 106.035 18.2196C105.954 18.1565 105.866 18.0881 105.771 18.0124L105.749 17.9944L105.726 17.9781C105.647 17.9205 105.557 17.8448 105.464 17.7619C105.171 17.506 104.769 17.1565 104.163 17.0123L104.14 17.0069L104.115 17.0015C103.716 16.9258 103.314 16.8862 102.917 16.8862L102.915 16.8916ZM112.167 28.2529C111.973 27.8277 111.871 27.3105 111.871 26.7375V26.6888C111.835 25.905 112.081 25.1932 112.568 24.6832C112.984 24.2472 113.541 24.0057 114.139 24.0057C114.323 24.0057 114.508 24.0273 114.696 24.0706C115.147 25.0328 115.126 26.2257 114.619 27.1465C114.376 27.5862 113.813 28.3232 112.756 28.3232C112.568 28.3232 112.37 28.2998 112.167 28.2529Z" fill="#240506"/>
<path d="M97.3056 53.8822C95.4843 53.8822 93.972 53.6227 92.5458 53.0641L92.5206 53.0533C92.1111 52.8695 91.8094 52.6118 91.5184 52.3631C91.3891 52.2532 91.2669 52.1487 91.1394 52.0532L90.9903 51.9379C90.4568 51.527 89.7941 51.0153 89.8479 49.9791C89.8479 49.8584 89.8479 49.7305 89.8444 49.5971C89.83 48.8835 89.8138 48.0763 90.2898 47.5879C90.4479 47.4258 90.7317 47.2329 91.1843 47.2329C91.398 47.2329 91.6297 47.2744 91.8902 47.3609C93.3146 47.851 94.4318 48.1538 95.619 48.1538C95.9855 48.1538 96.3142 48.1177 96.5836 48.0582C95.0874 47.7825 93.4295 47.4546 92.5045 46.5068C92.3985 46.4239 92.2961 46.3428 92.1955 46.2635C91.0622 45.3769 90.1425 44.658 89.8695 43.1299C89.8533 43.1299 89.8372 43.1299 89.8228 43.1299C89.6719 43.1299 89.5246 43.1191 89.3809 43.1101C89.2408 43.1011 89.1061 43.092 88.9714 43.092C88.8475 43.092 88.7379 43.0993 88.6355 43.1173L88.6158 43.1209H88.596C87.1232 43.2488 86.1083 44.6778 86.0095 46.7662V51.9289C86.0095 52.965 85.3162 53.6605 84.2834 53.6605H82.2789C81.8137 53.6605 81.4077 53.5218 81.1042 53.2569C80.7593 52.9794 80.4162 52.7019 80.0732 52.4226C79.6421 52.1018 79.0601 51.6604 79.0871 50.7269V39.4124C79.0871 39.1926 79.0871 39.0268 79.0961 38.8971H79.0871C79.1068 37.16 80.6605 37.16 81.1706 37.16C81.3125 37.16 81.4562 37.1636 81.5981 37.169C81.7257 37.1726 81.8532 37.1762 81.9753 37.1762C82.04 37.1762 82.1011 37.1762 82.1621 37.1726H82.207C83.0117 37.1726 83.5326 37.6375 83.9493 38.0123C83.9906 38.0484 84.0301 38.0844 84.0697 38.1186C84.9731 37.2249 86.1856 36.7401 87.5363 36.7401C87.8991 36.7401 88.2673 36.7762 88.6337 36.8465L88.6535 36.8501C89.1205 36.9582 89.424 37.2213 89.6935 37.4537C89.7869 37.5348 89.8767 37.6123 89.9665 37.6772L89.988 37.6934C90.1928 37.8574 90.3976 38.0231 90.6005 38.1889C90.8071 38.3295 90.9777 38.4916 91.1089 38.6736C92.3913 37.4177 94.1965 36.7582 96.3896 36.7582C98.2468 36.7582 99.9029 37.2231 100.966 37.6141C101.363 37.7601 101.645 38.0015 101.895 38.2159C101.994 38.3006 102.089 38.3817 102.186 38.4538L102.202 38.4664L102.216 38.479C102.319 38.5673 102.428 38.6502 102.545 38.7403C103.089 39.1566 103.765 39.6737 103.711 40.7135C103.707 40.8468 103.711 41.0108 103.714 41.1838C103.731 41.8649 103.749 42.638 103.29 43.1083C103.134 43.2686 102.85 43.4614 102.394 43.4614C102.166 43.4614 101.915 43.4146 101.629 43.3191L101.602 43.3101C100.925 43.0452 99.8329 42.7767 98.8216 42.6902C100.095 43.0704 101.092 43.6921 102.534 44.9589C103.684 45.8418 104.266 47.1356 104.266 48.8007C104.266 51.9829 101.665 53.8822 97.3074 53.8822H97.3056Z" fill="#240506"/>
<path d="M87.5345 37.2807C87.8686 37.2807 88.2027 37.3132 88.5296 37.3762C89.0055 37.4862 89.275 37.8465 89.6468 38.115C89.8569 38.2826 90.0671 38.4538 90.2754 38.6232C90.649 38.8719 90.8843 39.2052 90.9131 39.708C92.2351 37.942 94.2791 37.2969 96.3842 37.2988C97.8966 37.2988 99.4413 37.6321 100.776 38.1222C101.22 38.2844 101.498 38.6214 101.863 38.8899C102.453 39.398 103.219 39.7512 103.17 40.6846C103.145 41.5928 103.391 42.9209 102.392 42.9209C102.229 42.9209 102.033 42.8848 101.798 42.8073C100.932 42.4686 99.4323 42.1208 98.1786 42.1208C97.3074 42.1208 96.5549 42.2884 96.219 42.7443C99.0174 43.1065 100.059 43.4993 102.193 45.3769C103.053 46.0328 103.727 47.0672 103.727 48.7989C103.727 52.5217 99.9784 53.3398 97.3075 53.3398C95.7484 53.3398 94.2647 53.1542 92.7434 52.5577C92.2387 52.3307 91.8956 51.9379 91.4609 51.6153C90.9095 51.1828 90.3401 50.8243 90.3868 49.9935C90.3976 49.1034 90.2036 47.7717 91.1843 47.7717C91.3352 47.7717 91.513 47.8024 91.7232 47.8726C93.0218 48.3195 94.2845 48.6925 95.619 48.6925C96.3896 48.6925 97.7224 48.525 97.8679 47.7555C96.3088 47.4095 93.9073 47.2023 92.8655 46.1031C91.4142 44.9553 90.4587 44.3606 90.3365 42.5226C90.1641 42.5749 89.9934 42.5893 89.8192 42.5893C89.548 42.5893 89.2678 42.5515 88.9678 42.5515C88.8313 42.5515 88.693 42.5587 88.5475 42.5821C86.8034 42.7317 85.5785 44.3318 85.4671 46.7518V51.9271C85.4671 52.6713 85.0216 53.1181 84.2798 53.1181H82.2753C81.9286 53.1181 81.6484 53.019 81.4473 52.8406C81.097 52.5595 80.7485 52.2766 80.4001 51.9937C79.9744 51.6748 79.6044 51.3883 79.6224 50.7414V38.9025C79.6349 37.8357 80.3714 37.7006 81.1671 37.7006C81.4383 37.7006 81.7149 37.7168 81.9717 37.7168C82.0436 37.7168 82.1154 37.7168 82.1837 37.7132C82.1909 37.7132 82.1963 37.7132 82.2034 37.7132C83.062 37.7132 83.4859 38.4268 84.1271 38.8574C85.0234 37.7528 86.2754 37.2825 87.5345 37.2825M87.5345 36.2014C86.2179 36.2014 85.018 36.6194 84.0643 37.3979C83.6278 37.0267 83.0476 36.632 82.2034 36.632H82.1693H82.1514H82.1334C82.0813 36.6356 82.0274 36.6356 81.9717 36.6356C81.855 36.6356 81.7328 36.632 81.6107 36.6284C81.467 36.6248 81.3197 36.6194 81.1671 36.6194C80.6947 36.6194 80.0858 36.6591 79.5577 36.969C79.1033 37.2357 78.559 37.7853 78.5446 38.8917C78.5446 38.9079 78.5446 38.9223 78.5446 38.9385V40.7549V44.8237V50.7287C78.5177 51.9216 79.2721 52.5001 79.7391 52.8497C80.0768 53.1254 80.4163 53.3992 80.7557 53.6731C81.1581 54.0191 81.6826 54.2011 82.2753 54.2011H84.2798C85.6144 54.2011 86.5448 53.2659 86.5448 51.9289V46.7807C86.6346 44.9589 87.4357 43.766 88.6391 43.6633L88.6786 43.6597L88.7164 43.6543C88.7918 43.6416 88.8744 43.6362 88.9696 43.6362C89.0864 43.6362 89.2103 43.6452 89.3414 43.6543C89.372 43.6561 89.4025 43.6579 89.4312 43.6597C89.8228 45.0994 90.782 45.849 91.8615 46.6924C91.9297 46.7446 91.998 46.7987 92.068 46.8545H92.0626L92.0554 46.8509C91.7393 46.7482 91.4537 46.6978 91.1825 46.6978C90.5431 46.6978 90.1335 46.9789 89.9036 47.2149C89.2678 47.8654 89.2875 48.8349 89.3037 49.6133C89.3055 49.7413 89.3091 49.862 89.3073 49.9683C89.2462 51.2783 90.0958 51.9343 90.6598 52.3703C90.7047 52.4046 90.7496 52.4388 90.7945 52.4748L90.8071 52.4839L90.8197 52.4929C90.9328 52.5758 91.0478 52.6749 91.1699 52.7794C91.4753 53.0407 91.8219 53.3362 92.3015 53.5524L92.3267 53.5632L92.3518 53.5722C93.8426 54.1561 95.4179 54.4282 97.3075 54.4282C98.5935 54.4282 100.454 54.2552 102.021 53.4299C103.842 52.4694 104.805 50.8711 104.805 48.8061C104.805 46.9699 104.156 45.5373 102.876 44.5462C102.653 44.3498 102.439 44.1696 102.233 44.002C102.286 44.0056 102.34 44.0074 102.392 44.0074C103.035 44.0074 103.445 43.7263 103.673 43.4921C104.289 42.8578 104.268 41.9262 104.251 41.1766C104.248 41.0144 104.244 40.8612 104.248 40.7315C104.309 39.416 103.443 38.7547 102.87 38.3151C102.759 38.2304 102.655 38.1511 102.565 38.0736L102.534 38.0484L102.502 38.0249C102.421 37.9655 102.335 37.8916 102.242 37.8123C101.972 37.5799 101.636 37.2915 101.148 37.1131C100.045 36.7077 98.3241 36.2248 96.3878 36.2248C94.2683 36.2248 92.4811 36.8086 91.1358 37.9258C91.0694 37.87 90.9975 37.8141 90.9221 37.7619C90.7227 37.5997 90.5233 37.4375 90.3221 37.2771L90.3024 37.2609L90.2808 37.2465C90.209 37.1942 90.13 37.1258 90.0455 37.0519C89.7617 36.805 89.372 36.468 88.7756 36.3311L88.7559 36.3275L88.7361 36.3239C88.3374 36.2482 87.935 36.2086 87.5381 36.2086L87.5345 36.2014Z" fill="#240506"/>
<path d="M64.1141 34.3489C63.3975 34.3489 62.9484 33.9543 62.5874 33.639C62.467 33.5345 62.3557 33.4353 62.2371 33.3525L62.2174 33.338L62.1976 33.3218C62.1114 33.2479 62.0234 33.1813 61.9354 33.1128C61.5079 32.7848 60.9223 32.338 60.9511 31.4226V19.726C60.9511 19.6774 60.9529 19.6323 60.9583 19.5909H60.9511C60.9529 18.8683 61.2654 18.3385 61.8204 18.0628C61.6839 17.9529 61.5492 17.843 61.4145 17.7331C60.5936 17.1781 60.5433 16.187 60.5811 15.4806C60.5864 14.4914 61.084 13.3219 63.4082 13.3183C63.5142 13.3129 63.6238 13.3111 63.7351 13.3111C64.4662 13.3111 65.4541 13.4282 66.0324 13.9796C66.4617 14.3256 66.891 14.6734 67.3185 15.0211C68.1232 15.5599 68.1717 16.5294 68.134 17.2195C68.1304 17.8088 67.949 18.7043 66.97 19.1638C67.3095 19.4089 67.8951 19.8576 67.8735 20.791V32.6173C67.8735 33.6534 67.1802 34.3489 66.1474 34.3489H64.1123H64.1141Z" fill="#240506"/>
<path d="M63.737 13.8517C64.4626 13.8517 65.2619 13.9742 65.6768 14.385C66.1187 14.7418 66.5606 15.1004 67.0024 15.4572C67.5718 15.8248 67.6347 16.5384 67.5969 17.2033C67.5969 18.2502 66.9827 18.8052 65.7882 18.9008C66.0684 19.1278 66.3504 19.353 66.6288 19.5819C67.0347 19.8738 67.3509 20.1711 67.3365 20.7784V32.6173C67.3365 33.3615 66.8911 33.8084 66.1492 33.8084H64.1447C64.1339 33.8084 64.125 33.8084 64.1142 33.8084C63.4065 33.8084 63.0634 33.2732 62.5479 32.9092C62.0558 32.4875 61.4612 32.2244 61.4918 31.4316V19.5927C61.4954 18.6863 62.0827 18.3908 62.8443 18.3908C62.9269 18.3908 63.0113 18.3944 63.0993 18.4016C62.6449 18.034 62.1887 17.6664 61.736 17.297C61.1523 16.9168 61.084 16.1816 61.1218 15.4969C61.1218 14.3796 61.8636 13.8589 63.4226 13.8589C63.525 13.8535 63.631 13.8517 63.737 13.8517ZM63.737 12.7705C63.6256 12.7705 63.5107 12.7723 63.3975 12.7777C62.3916 12.7813 61.6283 12.9759 61.0661 13.3759C60.6045 13.7039 60.0548 14.331 60.0441 15.4644C60.0171 15.9473 59.965 17.2538 60.9439 18.0538C60.6045 18.4394 60.4177 18.9602 60.4159 19.5891C60.4159 19.6017 60.4159 19.6143 60.4159 19.6269V20.1009V21.4415V25.5103V31.4118C60.3817 32.5992 61.1505 33.1885 61.6121 33.5417C61.6983 33.6083 61.7809 33.6714 61.851 33.7309L61.8887 33.7633L61.93 33.7921C62.0234 33.8588 62.1276 33.9489 62.2354 34.0444C62.618 34.3814 63.1963 34.8877 64.116 34.8877C64.1303 34.8877 64.1429 34.8877 64.1573 34.8877H66.151C67.4856 34.8877 68.416 33.9525 68.416 32.6155V20.7874C68.4286 20.0648 68.152 19.5621 67.8484 19.2179C68.3765 18.7422 68.6675 18.0664 68.6747 17.2357C68.7016 16.7366 68.7591 15.3509 67.6419 14.5851C67.2251 14.2463 66.8066 13.9093 66.3881 13.5706C65.8205 13.039 64.9278 12.7687 63.737 12.7687V12.7705Z" fill="#240506"/>
<path d="M50.7416 34.3489C50.0788 34.3489 49.6944 34.0246 49.355 33.7399L49.2652 33.6642C48.9239 33.3903 48.5772 33.1092 48.2324 32.8281C47.821 32.52 47.5947 32.0244 47.5947 31.4298V15.7942C47.5947 14.758 48.288 14.0625 49.3208 14.0625H51.3254C51.7906 14.0625 52.1965 14.2012 52.5001 14.4661C52.9599 14.8373 53.4197 15.2085 53.8795 15.5815C54.2909 15.8897 54.5172 16.3852 54.5172 16.9799V27.7988H58.7094C59.2052 27.7988 59.6129 27.9502 59.9578 28.2619C60.2775 28.5196 60.5972 28.7773 60.9151 29.0368C61.3444 29.3575 61.9264 29.799 61.9012 30.7306V32.6137C61.9012 33.6498 61.2079 34.3453 60.1751 34.3453H51.1907C51.0559 34.3453 50.9248 34.3453 50.8027 34.3345V34.3453C50.7829 34.3453 50.7632 34.3453 50.7434 34.3453L50.7416 34.3489Z" fill="#240506"/>
<path d="M51.3235 14.6049C51.6702 14.6049 51.9504 14.704 52.1516 14.8824C52.6168 15.2572 53.082 15.6338 53.5472 16.0122C53.822 16.214 53.9765 16.5474 53.9765 16.9817V28.3412H58.7076C58.7076 28.3412 58.7094 28.3412 58.7112 28.3412C59.0974 28.3412 59.374 28.4619 59.6057 28.6746C59.9326 28.9377 60.2577 29.2007 60.5828 29.4656C61.0103 29.7846 61.3785 30.0693 61.3605 30.718V32.6173C61.3605 33.3615 60.9151 33.8084 60.1733 33.8084H50.7847C50.7703 33.8084 50.7542 33.8084 50.7398 33.8084C50.2261 33.8084 49.9531 33.5345 49.6064 33.2479C49.2561 32.9668 48.9077 32.6839 48.5592 32.401C48.2844 32.1992 48.1299 31.8658 48.1299 31.4316V15.796C48.1299 15.0518 48.5754 14.6049 49.3172 14.6049H51.3217M51.3217 13.5237H49.3172C47.9827 13.5237 47.0522 14.4589 47.0522 15.796V31.4316C47.0522 32.1956 47.3522 32.8425 47.8964 33.2552C48.2377 33.5327 48.579 33.8102 48.9221 34.0859L49.0029 34.1543C49.3513 34.448 49.8776 34.8895 50.7362 34.8895C50.7613 34.8895 50.7865 34.8895 50.8116 34.8895V34.8859C50.923 34.8913 51.0451 34.8913 51.1834 34.8913H52.2468H55.4745H60.1679C61.5024 34.8913 62.4329 33.9561 62.4329 32.6191V30.7342C62.458 29.5413 61.7036 28.9629 61.2384 28.6151C60.9259 28.361 60.6115 28.107 60.2972 27.8547C59.8572 27.4619 59.3219 27.2636 58.704 27.2636H55.047V16.9853C55.047 16.2194 54.747 15.5743 54.201 15.1617C53.7466 14.7923 53.2921 14.4247 52.8359 14.0571C52.4336 13.7111 51.9091 13.5291 51.3164 13.5291L51.3217 13.5237Z" fill="#240506"/>
<path d="M76.6676 34.6192C75.2252 34.6192 73.9536 34.2246 72.8848 33.4444L72.8633 33.4281C72.4035 33.0569 71.9436 32.6839 71.4838 32.3127C69.2799 30.8009 69.3284 27.3754 69.3661 24.622C69.3697 24.3499 69.3733 24.0832 69.3751 23.8273C69.1919 23.7264 69.0464 23.6039 68.9171 23.4958C68.8668 23.4525 68.8147 23.4093 68.7608 23.3678C68.4052 23.0813 68.0567 22.8002 67.7119 22.5191C67.3005 22.211 67.0742 21.7154 67.0742 21.1208V19.6324C67.0904 17.8899 68.6549 17.8899 69.1686 17.8899C69.3051 17.8899 69.4434 17.8935 69.5799 17.8971C69.6158 17.8971 69.6517 17.8989 69.6877 17.9007L70.0541 16.0645C70.2534 15.1094 70.9037 14.5869 71.8808 14.5869H71.9167C71.9598 14.5905 72.0065 14.5923 72.0586 14.5923C72.1502 14.5923 72.2508 14.5887 72.3586 14.5869C72.4897 14.5833 72.6298 14.5797 72.7699 14.5797C73.3159 14.5797 73.9212 14.6319 74.2966 15.0049C74.5194 15.1833 74.7421 15.3635 74.963 15.5455C76.1323 16.4303 76.3011 16.6681 76.3011 17.9007C76.3065 17.9007 76.3137 17.9007 76.3191 17.9007C76.479 17.8953 76.6496 17.8899 76.8202 17.8899C77.3968 17.8899 78.0327 17.9421 78.4134 18.3169C78.7098 18.5548 79.0044 18.7926 79.2972 19.0323C79.3475 19.0719 79.3995 19.1134 79.4534 19.153C79.8719 19.4756 80.4431 19.9171 80.4144 20.8252V22.3047C80.4144 23.3408 79.7211 24.0363 78.6883 24.0363H76.3029C76.3029 24.2634 76.2994 24.5517 76.2958 24.9067C76.285 25.8347 76.267 27.6168 76.3281 28.3502C76.4161 28.3574 76.5059 28.361 76.5957 28.361C76.8598 28.361 77.1004 28.3304 77.2908 28.2727L77.3124 28.2655L77.3357 28.2601C77.5854 28.2079 77.7866 28.1826 77.968 28.1826C78.3614 28.1826 78.6811 28.3034 78.9415 28.5539C79.263 28.8115 79.5846 29.071 79.9025 29.3323C79.9384 29.3593 79.9779 29.39 80.0156 29.4206C80.3533 29.6783 80.7718 29.999 80.7503 30.8459V32.2839C80.7503 33.2155 80.2761 33.8876 79.4175 34.1742C78.4619 34.4715 77.5387 34.621 76.6676 34.621V34.6192Z" fill="#240506"/>
<path d="M72.7718 15.1166C73.237 15.1166 73.713 15.1599 73.9357 15.4032C74.1692 15.5906 74.4009 15.778 74.6326 15.9672C75.8504 16.8898 75.7768 16.8952 75.7588 18.4376C75.8181 18.4431 75.8881 18.4449 75.9654 18.4449C76.2043 18.4449 76.5132 18.4268 76.8239 18.4268C77.3251 18.4268 77.8316 18.4737 78.0543 18.7152C78.3579 18.9584 78.6596 19.2035 78.9614 19.4485C79.423 19.8198 79.9044 20.09 79.8792 20.8144V22.3029C79.8792 23.0471 79.4338 23.4939 78.692 23.4939H75.7606C75.8019 24.0508 75.651 28.4007 75.8738 28.8313C76.0947 28.8728 76.3462 28.898 76.5976 28.898C76.894 28.898 77.1922 28.8638 77.449 28.7863C77.6502 28.7431 77.8208 28.7196 77.9681 28.7196C78.2285 28.7196 78.4207 28.7917 78.586 28.9557C78.9129 29.217 79.238 29.4801 79.5631 29.7467C79.9403 30.0477 80.2295 30.1828 80.2133 30.8279V32.2803C80.2133 32.9506 79.9169 33.4335 79.2488 33.657C78.3435 33.9381 77.4795 34.075 76.6695 34.075C75.3457 34.075 74.1692 33.7074 73.2029 33.0029C72.7376 32.6263 72.2724 32.2497 71.8072 31.8731C69.5207 30.3252 69.932 26.2347 69.9159 23.4525C69.5656 23.3786 69.3555 23.1354 69.0914 22.9317C68.7412 22.6506 68.3927 22.3677 68.0442 22.0848C67.7694 21.883 67.615 21.5496 67.615 21.1154V19.6269C67.6239 18.5566 68.3712 18.425 69.1705 18.425C69.4309 18.425 69.6985 18.4395 69.9464 18.4395C70.0093 18.4395 70.0703 18.4395 70.1314 18.4358L70.584 16.1654C70.7331 15.4572 71.1786 15.1238 71.8827 15.1238C71.9366 15.1275 71.9958 15.1293 72.0605 15.1293C72.2635 15.1293 72.5167 15.1166 72.7736 15.1166M72.7736 14.0355C72.6281 14.0355 72.4826 14.0391 72.3461 14.0427C72.2437 14.0463 72.1467 14.0481 72.0605 14.0481C72.021 14.0481 71.9851 14.0481 71.9545 14.0463H71.9186L71.8827 14.0445C70.6595 14.0445 69.7794 14.7544 69.5297 15.9455V15.9509L69.5279 15.9564L69.2513 17.3475C69.2243 17.3475 69.1974 17.3475 69.1722 17.3475C68.6693 17.3475 68.0838 17.3889 67.5593 17.6916C67.0995 17.9583 66.5498 18.5097 66.5391 19.6197C66.5391 19.6432 66.5391 19.6684 66.5391 19.6936V19.863V20.3748V21.119C66.5391 21.8848 66.839 22.5299 67.3833 22.9425C67.7263 23.2218 68.0712 23.5012 68.4179 23.7787L68.4268 23.7859L68.4358 23.7931C68.4843 23.8291 68.5292 23.8688 68.5741 23.9066C68.6496 23.9697 68.7358 24.0435 68.8382 24.1174C68.8382 24.2778 68.8346 24.4436 68.831 24.613C68.7915 27.4889 68.7412 31.064 71.1642 32.7434C71.6186 33.111 72.0731 33.4786 72.5275 33.8462L72.5473 33.8624L72.5688 33.8786C73.7148 34.7147 75.1319 35.158 76.6695 35.158C77.5963 35.158 78.5716 35.0013 79.5685 34.6913L79.5793 34.6877L79.59 34.6841C80.6713 34.3219 81.291 33.4462 81.291 32.2803V30.8405C81.3144 29.7287 80.7073 29.2638 80.3444 28.9863C80.3103 28.9593 80.2744 28.9341 80.2385 28.9052C79.9259 28.6494 79.608 28.3935 79.2955 28.1412C78.9362 27.8078 78.4908 27.6385 77.9681 27.6385C77.749 27.6385 77.5119 27.6673 77.2245 27.7285L77.1796 27.7376L77.1347 27.7502C77.052 27.7754 76.9515 27.7934 76.8401 27.8042C76.8132 26.9699 76.8275 25.6491 76.8365 24.9085C76.8365 24.7896 76.8383 24.6778 76.8401 24.5733H78.6902C80.0247 24.5733 80.9551 23.6381 80.9551 22.301V20.8288C80.9875 19.6504 80.2349 19.0683 79.784 18.7206C79.7337 18.6827 79.6834 18.6431 79.6331 18.6034C79.3511 18.3728 79.062 18.1403 78.7728 17.9061C78.2591 17.4141 77.5065 17.3439 76.8293 17.3439C76.806 17.0141 76.7449 16.7276 76.5994 16.4339C76.3372 15.9041 75.8774 15.5527 75.2972 15.113C75.0834 14.9382 74.8697 14.7653 74.6542 14.5923C74.1387 14.0967 73.3807 14.0319 72.77 14.0319L72.7736 14.0355Z" fill="#240506"/>
<path d="M96.3285 37.1222C93.8049 37.1222 90.1318 38.2015 90.1318 41.7009C90.1318 43.2272 90.4658 45.1625 93.5822 45.8707C94.6581 46.132 95.6981 46.2058 96.774 46.541C97.1817 46.6527 97.7008 46.914 97.7008 47.4348C97.7008 48.3285 96.2531 48.5141 95.4377 48.5141C94.1013 48.5141 92.8404 48.1411 91.5418 47.6943C90.7245 47.3969 90.2054 47.7681 90.2054 48.6619V49.8152C90.2054 50.4855 90.4658 50.9324 91.0963 51.1919C92.6177 51.7883 94.1013 51.9739 95.6604 51.9739C98.3313 51.9739 102.08 51.154 102.08 47.433C102.08 44.2309 99.779 43.4128 98.2576 42.9659C97.5158 42.7425 96.3285 42.6308 95.3263 42.4451C94.6958 42.3334 94.509 41.9604 94.509 41.6253C94.509 41.0667 95.2886 40.7693 96.5495 40.7693C97.6254 40.7693 98.8881 40.9549 100.149 41.4397C101.002 41.737 101.521 41.4397 101.521 40.5459V39.3169C101.521 38.6466 101.225 38.1637 100.594 37.9403C99.1845 37.4195 97.7745 37.1204 96.3267 37.1204L96.3285 37.1222ZM82.9704 40.1368L83.8236 45.3859C83.935 42.9659 85.16 41.3658 86.904 41.2162C87.3495 41.1784 87.7213 41.1784 88.0536 41.2162C88.7954 41.2901 89.2031 40.9928 89.2409 40.1747L89.2786 38.5367C89.2786 37.8664 89.0181 37.3456 88.3518 37.196C87.944 37.1222 87.4608 37.0843 86.904 37.1222C85.309 37.2339 84.0104 38.1637 82.9704 40.1368ZM79.4445 38.7223V50.5612C79.4445 51.3054 79.89 51.7523 80.6318 51.7523H82.6363C83.3782 51.7523 83.8236 51.3054 83.8236 50.5612V41.3658L83.3045 38.6106C83.1554 37.8664 82.71 37.5312 82.0059 37.5312H80.6336C79.8918 37.5312 79.4463 37.9781 79.4463 38.7223H79.4445ZM67.7928 43.0038C68.0532 41.7009 69.1291 40.7693 70.7618 40.7693C72.3946 40.7693 73.1005 41.6991 73.3968 43.0038H67.7928ZM76.6246 49.817V48.6259C76.6246 47.6961 76.0677 47.4726 75.2523 47.7699C74.1386 48.2168 73.0627 48.3285 71.8755 48.3285C69.8709 48.3285 68.2759 47.3609 67.8305 45.9085H76.5886C77.3304 45.9085 77.7759 45.4616 77.7759 44.7174V44.5318C77.7759 40.3242 75.3636 37.124 71.06 37.124C66.7564 37.124 63.6005 40.4738 63.6005 44.5697C63.6005 48.6655 66.3469 52.0532 71.7264 52.0532C73.0987 52.0532 74.62 51.8676 75.845 51.2333C76.4395 50.936 76.6246 50.4513 76.6246 49.8188V49.817ZM47.9774 38.8719L52.7265 50.7846C52.9869 51.4171 53.4324 51.7144 54.0988 51.7144H57.3642C58.0324 51.7144 58.4778 51.4171 58.7365 50.7846L63.4856 38.8719C63.8196 38.0159 63.4478 37.4952 62.5587 37.4952H60.2956C59.6274 37.4952 59.1819 37.8303 58.9592 38.4628L55.1747 49.334H56.2883L52.5038 38.4628C52.281 37.8303 51.8356 37.4952 51.1674 37.4952H48.9042C48.0133 37.4952 47.6433 38.0159 47.9774 38.8719ZM119.091 18.2214H117.719C117.013 18.2214 116.57 18.5566 116.421 19.3008L115.901 22.056V29.9486L116.904 31.6244C117.238 32.183 117.683 32.4443 118.314 32.4443H119.093C119.835 32.4443 120.28 31.9974 120.28 31.2532V19.4143C120.28 18.6701 119.835 18.2232 119.093 18.2232L119.091 18.2214ZM112.523 29.2044C110.296 29.2044 109.146 27.4925 109.146 25.3698C109.146 23.2471 110.296 21.5731 112.523 21.5731C114.75 21.5731 115.9 23.2849 115.9 25.3698C115.9 27.4547 114.675 29.2044 112.523 29.2044ZM111.855 32.8533C117.272 32.8533 118.163 27.269 118.163 25.3698C118.163 23.8814 117.272 17.9241 111.855 17.9241C107.883 17.9241 104.767 21.2739 104.767 25.3698C104.767 29.4656 107.883 32.8533 111.855 32.8533ZM98.3474 20.8288L99.2006 26.078C99.312 23.6579 100.537 22.0578 102.281 21.9082C102.727 21.8704 103.098 21.8704 103.431 21.9082C104.172 21.9821 104.58 21.6848 104.618 20.8667L104.656 19.2287C104.656 18.5584 104.395 18.0376 103.729 17.8881C103.321 17.8142 102.838 17.7763 102.281 17.8142C100.686 17.9259 99.3874 18.8557 98.3474 20.8288ZM94.8216 19.4143V31.2532C94.8216 31.9974 95.267 32.4443 96.0088 32.4443H98.0134C98.7552 32.4443 99.2006 31.9974 99.2006 31.2532V22.0578L98.6815 19.3026C98.5325 18.5584 98.087 18.2232 97.3829 18.2232H96.0106C95.2688 18.2232 94.8234 18.6701 94.8234 19.4143H94.8216ZM83.3925 23.7336C83.653 22.4308 84.7289 21.4992 86.3616 21.4992C87.9943 21.4992 88.7002 22.429 88.9966 23.7336H83.3925ZM92.2243 30.5468V29.3557C92.2243 28.4259 91.6675 28.2025 90.852 28.4998C89.7384 28.9467 88.6625 29.0584 87.4752 29.0584C85.4707 29.0584 83.8757 28.0907 83.4302 26.6384H92.1884C92.9302 26.6384 93.3756 26.1915 93.3756 25.4473V25.2617C93.3756 21.0541 90.9634 17.8538 86.6598 17.8538C82.3561 17.8538 79.2003 21.2037 79.2003 25.2995C79.2003 29.3954 81.9466 32.783 87.3261 32.783C88.6984 32.783 90.2198 32.5974 91.4448 31.9632C92.0393 31.6658 92.2243 31.1811 92.2243 30.5486V30.5468ZM110.617 48.4421C108.39 48.4421 107.537 46.7302 107.537 44.6075C107.537 42.4848 108.39 40.8108 110.617 40.8108C112.844 40.8108 113.66 42.5226 113.66 44.6075C113.66 46.6924 112.807 48.4421 110.617 48.4421ZM110.617 52.091C114.923 52.091 118.039 48.7412 118.039 44.6075C118.039 40.4738 114.923 37.1618 110.617 37.1618C106.312 37.1618 103.158 40.5873 103.158 44.6075C103.158 48.6277 106.274 52.091 110.617 52.091ZM67.4371 19.454V20.9424C67.4371 21.6866 67.8826 22.1335 68.6244 22.1335H77.0484C77.7903 22.1335 78.2357 21.6866 78.2357 20.9424V19.454C78.2357 18.7097 77.7903 18.2629 77.0484 18.2629H68.6244C67.8826 18.2629 67.4371 18.7097 67.4371 19.454ZM70.4062 15.9924L69.8871 18.598L69.738 19.454V26.6762C69.738 30.6603 71.4444 32.7074 75.2666 32.7074C75.6007 32.7074 76.5276 32.6695 77.6053 32.2983C78.2734 32.0749 78.5698 31.5901 78.5698 30.9216V29.4692C78.5698 28.6133 78.1244 28.4277 77.2712 28.6133C77.0107 28.6872 76.7521 28.725 76.4539 28.725C75.0439 28.725 74.1153 28.1664 74.1153 26.678V16.142C74.1153 15.3977 73.6698 14.9509 72.928 14.9509H71.703C70.9971 14.9509 70.5535 15.286 70.4044 15.9924H70.4062ZM60.944 15.3221V15.8428C60.944 16.96 61.7972 17.5547 63.2449 17.5547H63.764C65.2117 17.5547 65.9535 16.9961 65.9535 15.8428V15.3221C65.9535 14.2427 65.1003 13.6841 63.764 13.6841H63.2449C61.6858 13.6841 60.944 14.2048 60.944 15.3221ZM61.3158 19.4179V31.2568C61.3158 32.001 61.7612 32.4479 62.5031 32.4479H64.5076C65.2494 32.4479 65.6948 32.001 65.6948 31.2568V19.4179C65.6948 18.6737 65.2494 18.2268 64.5076 18.2268H62.5031C61.7612 18.2268 61.3158 18.6737 61.3158 19.4179ZM47.9577 15.6212V31.2568C47.9577 32.001 48.4031 32.4479 49.1449 32.4479H58.5335C59.2753 32.4479 59.7208 32.001 59.7208 31.2568V29.3575C59.7208 28.6133 59.2753 28.1664 58.5335 28.1664H50.6663L52.3367 29.8422V15.6212C52.3367 14.877 51.8913 14.4301 51.1495 14.4301H49.1449C48.4031 14.4301 47.9577 14.877 47.9577 15.6212Z" fill="#F9EAE1"/>
<path d="M13.4641 39.4899C12.636 39.4899 11.7703 39.3314 10.892 39.0088C7.36787 37.7186 4.62871 33.6516 4.65745 29.7467C4.67002 28.0151 5.36694 26.5411 6.56678 25.7049C7.73429 24.8923 9.21793 24.7517 10.7429 25.3103C13.1677 26.1969 15.0501 28.9899 15.0303 31.6676C15.025 32.365 14.4663 32.9272 13.764 32.92C13.0689 32.9146 12.5103 32.3452 12.5157 31.6496C12.5283 30.026 11.3212 28.2079 9.88072 27.6817C9.14429 27.4132 8.47611 27.4474 8.00013 27.779C7.47205 28.1466 7.17748 28.853 7.17029 29.7666C7.14874 32.5758 9.24667 35.7238 11.7505 36.6392C13.1228 37.142 14.3963 37.0573 15.3357 36.4032C16.3541 35.6932 16.9235 34.385 16.9343 32.7182C16.9397 32.0244 17.5019 31.4658 18.1916 31.4658H18.2006C18.8957 31.4712 19.4543 32.0406 19.4489 32.7362C19.431 35.2085 18.4538 37.3006 16.769 38.4736C15.8009 39.1476 14.6711 39.4881 13.4605 39.4881L13.4641 39.4899Z" fill="#F9EAE1"/>
</g>
<defs>
<clipPath id="clip0_1_2">
<rect width="123" height="62" fill="white"/>
</clipPath>
</defs>
</svg>
